/* XPM */
static char *_ab09f3ec2554f01e0de8d59379c3202H5gZWvGNXqybFmxY[] = {
/* columns rows colors chars-per-pixel */
"50 50 130 2 ",
"   c None",
".  c black",
"X  c #020000",
"o  c #030000",
"O  c #130000",
"+  c #180000",
"@  c #1A0000",
"#  c #1B0000",
"$  c #1D0000",
"%  c #1E0000",
"&  c #1F0000",
"*  c #200000",
"=  c #340000",
"-  c #360000",
";  c #390000",
":  c #3A0000",
">  c #3A0202",
",  c #3D0000",
"<  c #3E0000",
"1  c #440000",
"2  c #460000",
"3  c #490000",
"4  c #4A0000",
"5  c #550000",
"6  c #590000",
"7  c #5A0000",
"8  c #5B0000",
"9  c #6E0000",
"0  c #6E0505",
"q  c #7C0000",
"w  c #7D0000",
"e  c #8A0000",
"r  c #910000",
"t  c #920000",
"y  c #940000",
"u  c #970000",
"i  c #A60000",
"p  c #A70000",
"a  c #AB0000",
"s  c #AE0000",
"d  c #AF0000",
"f  c #AE0A0A",
"g  c #BA0000",
"h  c #BD0000",
"j  c #C20000",
"k  c #C60000",
"l  c #C80000",
"z  c #C80101",
"x  c #CB0000",
"c  c #CC0000",
"v  c #CD0000",
"b  c #D30000",
"n  c #D40000",
"m  c #D50000",
"M  c #D60000",
"N  c #D70000",
"B  c #D80000",
"V  c #D90000",
"C  c #DD0000",
"Z  c #DF0000",
"A  c #E00000",
"S  c #E10000",
"D  c #E20000",
"F  c #E30000",
"G  c #E40000",
"H  c #E50000",
"J  c #E60000",
"K  c #E90000",
"L  c #EB0000",
"P  c #EC0000",
"I  c #ED0000",
"U  c #EF0000",
"Y  c #E30E0E",
"T  c #E40E0E",
"R  c #F00000",
"E  c #F10000",
"W  c #F40000",
"Q  c #F50000",
"!  c #F60000",
"~  c #F90000",
"^  c #FA0000",
"/  c #FB0000",
"(  c #FC0000",
")  c #FD0000",
"_  c #FE0000",
"`  c red",
"'  c #FF0101",
"]  c #FD0202",
"[  c #FE0202",
"{  c #FE0505",
"}  c #FF0505",
"|  c #FF0808",
" . c #FF0A0A",
".. c #FD0F0F",
"X. c #FE0E0E",
"o. c #FF0E0E",
"O. c #FF0F0F",
"+. c #FE1010",
"@. c #FF1010",
"#. c #FF1111",
"$. c #FF1D1D",
"%. c #FF1E1E",
"&. c #EB2828",
"*. c #FF2828",
"=. c #FF2D2D",
"-. c #FF2E2E",
";. c #FF2F2F",
":. c #E03535",
">. c #FF3838",
",. c #FF3939",
"<. c #F54949",
"1. c #FF4848",
"2. c #FF4949",
"3. c #FF5252",
"4. c #FF5454",
"5. c #FF5858",
"6. c #FB6363",
"7. c #FF6363",
"8. c #FF6464",
"9. c #FF7070",
"0. c #FF7171",
"q. c #FF7272",
"w. c #FF7373",
"e. c #FF7979",
"r. c #FF7B7B",
"t. c #FF7D7D",
"y. c #FF7E7E",
"u. c #FF8181",
"i. c #FF8282",
"p. c #FF8484",
/* pixels */
"                                                                                                    ",
"                                                                                                    ",
"                                                                                                    ",
"                                                                                                    ",
"                                                                                                    ",
"                                                                                                    ",
"                                                                                                    ",
"                                                                                                    ",
"                              o o o o o                     o o o o o                               ",
"                              5 5 6 5 6 -                 - 6 5 6 6 5                               ",
"                        $ $ > Y +.+...[ 0 $ $         $ # 0 ..+... .F > $ $                         ",
"                      o u F T 6.w.w.7...K F z $     $ z F &.9.w.w.2.^ J F u o                       ",
"                    $ u :.4.5.r.u.u.w.+.[ [ ! d 2 2 f <.3.7.r.>.=.$.[ [ [ F u $                     ",
"                    $ F 4.p.u.u.7.3.2. .[ [ [ [ t t ..w.p.w.2.{ [ [ [ [ [ [ F $                     ",
"                    > Y 5.u.y.w.*.[ [ [ [ [ [ [ [ { $.w.r.2.[ [ [ [ [ [ [ [ F -                     ",
"                o 5 Y 6.r.u.w.$.[ [ [ [ [ [ [ [ [ *.9.y.>.{ [ [ [ [ [ [ [ [ ! j 2 o                 ",
"                o 6 ..w.u.7.*.[ [ [ [ [ [ [ [ [ [ ..=.=...[ [ [ [ [ [ [ [ ! F n 3 o                 ",
"                o 6 ..w.u.3.[ [ [ [ [ [ [ [ [ [ [ [ [ [ [ [ [ [ [ [ [ [ [ P b n 3 o                 ",
"                o 5 ..7.w.2.[ [ [ [ [ [ [ [ [ [ [ [ [ [ [ [ [ [ [ [ [ [ [ P n n 3 o                 ",
"                o 6 [ ..+. .[ [ [ [ [ [ [ [ [ [ [ [ [ [ [ [ [ [ [ [ [ [ [ E n n 3 o                 ",
"                o 6 [ [ [ [ [ [ [ [ [ [ [ [ [ [ [ [ [ [ [ [ [ [ [ [ [ [ P Z b n 3 o                 ",
"                  3 d ! [ [ [ [ [ [ [ [ [ [ [ [ [ [ [ [ [ [ [ [ [ [ [ [ F n z t <                   ",
"                    * F [ [ [ [ [ [ [ [ [ [ [ [ [ [ [ [ [ [ [ [ [ [ [ [ F n g #                     ",
"                    $ Z [ [ [ [ [ [ [ [ [ [ [ [ [ [ [ [ [ [ [ [ [ [ [ [ J n g #                     ",
"                    $ J [ [ [ [ [ [ [ [ [ [ [ [ [ [ [ [ [ [ [ [ [ [ [ J B B h #                     ",
"                    $ u F [ [ [ [ [ [ [ [ [ [ [ [ [ [ [ [ [ [ [ [ ^ P n n g q #                     ",
"                      o a [ [ [ [ [ [ [ [ [ [ [ [ [ [ [ [ [ [ [ [ E n n z q o                       ",
"                        P [ [ [ [ [ [ [ [ [ [ [ [ [ [ [ [ [ [ [ [ E n n 8 O                         ",
"                        5 e K ^ [ [ [ [ [ [ [ [ [ [ [ [ [ [ [ [ P Z b n 2 o                         ",
"                          - u J E E E [ [ [ [ [ [ [ [ [ [ [ [ E Z b z t <                           ",
"                            # p v n B ! [ [ [ [ [ [ [ [ ^ ^ ! B b v p #                             ",
"                              # t n n B E [ [ [ [ [ [ [ J B B n n t #                               ",
"                                > q n n Z P [ [ [ ! F F B n n n q >                                 ",
"                                  > t v b Z E E E J b b n n v t >                                   ",
"                                    # p z n n n n n b n b v p #                                     ",
"                                      # t n n n n n n n n t #                                       ",
"                                        > q B n n n n n q <                                         ",
"                                          > t z n n z t >                                           ",
"                                            # p v v p #                                             ",
"                                              # u t #                                               ",
"                                                < <                                                 ",
"                                                                                                    ",
"                                                                                                    ",
"                                                                                                    ",
"                                                                                                    ",
"                                                                                                    ",
"                                                                                                    ",
"                                                                                                    ",
"                                                                                                    ",
"                                                                                                    "
};
