/* XPM */
static char *_664297616076[] = {
/* columns rows colors chars-per-pixel */
"50 50 154 2 ",
"   c #26241E",
".  c #2D221F",
"X  c #33221F",
"o  c #3B231E",
"O  c #1F2522",
"+  c #232323",
"@  c #2B2221",
"#  c #322221",
"$  c #3B2221",
"%  c #44241C",
"&  c #4B231E",
"*  c #54241D",
"=  c #5C251E",
"-  c #64251E",
";  c #6B261D",
":  c #672A1D",
">  c #73271E",
",  c #72281F",
"<  c #7E2A1C",
"1  c #452420",
"2  c #4B2521",
"3  c #522520",
"4  c #5F2722",
"5  c #5E2821",
"6  c #602520",
"7  c #692625",
"8  c #622822",
"9  c #6D2921",
"0  c #722721",
"q  c #7B2721",
"w  c #742B22",
"e  c #7D2A21",
"r  c #82271E",
"t  c #832C1F",
"y  c #8D2A1E",
"u  c #92271D",
"i  c #97291F",
"p  c #AF2E1E",
"a  c #B42D1F",
"s  c #BA2D1F",
"d  c #832B22",
"f  c #8C2B20",
"g  c #942B21",
"h  c #9B2B22",
"j  c #953325",
"k  c #9D3324",
"l  c #A32D22",
"z  c #AB2E22",
"x  c #B22E22",
"c  c #BC2E20",
"v  c #A43325",
"b  c #AC3223",
"n  c #AC3926",
"m  c #B33426",
"M  c #BC3223",
"N  c #B33A25",
"B  c #B43729",
"V  c #BC362A",
"C  c #B63C2C",
"Z  c #BA3C2C",
"A  c #BB3F31",
"S  c #C32F21",
"D  c #C53122",
"F  c #CC3022",
"G  c #C03927",
"H  c #CD3926",
"J  c #C23629",
"K  c #CB3628",
"L  c #C3392A",
"P  c #CB392A",
"I  c #D33123",
"U  c #DB3525",
"Y  c #D43A26",
"T  c #DB3926",
"R  c #D93729",
"E  c #D43C2B",
"W  c #DE3A29",
"Q  c #DB3E30",
"!  c #E33627",
"~  c #E23827",
"^  c #E53628",
"/  c #E83629",
"(  c #E33929",
")  c #E93C2B",
"_  c #E33F33",
"`  c #BB422C",
"'  c #BA4232",
"]  c #C54129",
"[  c #CE4B2F",
"{  c #DB412E",
"}  c #D44A2E",
"|  c #C34833",
" . c #D64131",
".. c #D04E31",
"X. c #D94E32",
"o. c #DB4C3C",
"O. c #D55133",
"+. c #D85133",
"@. c #D45739",
"#. c #DD533E",
"$. c #E4432D",
"%. c #E9422E",
"&. c #E44234",
"*. c #E84530",
"=. c #E54932",
"-. c #E64639",
";. c #E54B3C",
":. c #E75037",
">. c #E4523D",
",. c #DE5242",
"<. c #DC5B49",
"1. c #E64F41",
"2. c #E84E42",
"3. c #E65545",
"4. c #E85446",
"5. c #E65B45",
"6. c #E65549",
"7. c #E95649",
"8. c #E55B4A",
"9. c #E85948",
"0. c #E45E52",
"q. c #E96046",
"w. c #E5604C",
"e. c #E66B4D",
"r. c #E56254",
"t. c #E76B53",
"y. c #E36759",
"u. c #E56C5B",
"i. c #E97457",
"p. c #E67259",
"a. c #EB735A",
"s. c #E5795F",
"d. c #E67163",
"f. c #E77B63",
"g. c #EB7D62",
"h. c #E6776A",
"j. c #E87A6F",
"k. c #E67F72",
"l. c #EC8566",
"z. c #EC8369",
"x. c #E78B6C",
"c. c #EB8B6C",
"v. c #E78978",
"b. c #EA897C",
"n. c #EB9677",
"m. c #EC8F85",
"M. c #EC968B",
"N. c #ED9B8B",
"B. c #EE9F91",
"V. c #EBA689",
"C. c #EDA194",
"Z. c #ECAC97",
"A. c #ECB99B",
"S. c #F3CBB7",
/* pixels */
"+ + + + + + + + + + + + + + + + + + + + + + + + + + + + + + + + + + + + + + + + + + + + + + + + + + ",
"+ + + + + + + + + + + + + @ . @ @ + + + + + + + + + + + + + + + + @ @ @ + + + + + + + + + + + + + + ",
"+ + + + + + + + + + X 4 r h l h r = X + + + + + + + + + + + X & d h l v g 0 1 + + + + + + + + + + + ",
"+ + + + + + + O X - l M K o.,.o.R F l 6 @ + + + + + + + + * h F R R R W ( U V d $ + + + + + + + + + ",
"+ + + + + + + % y D { <.b.N.N.N.m.6.Q F g o + + + + + # q S U _ 0.h.k.k.v.p.>.W B = + + + + + + + + ",
"+ + + + + + % h P #.5.u.M.C.B.N.M.d.0.6.R z & + + + X g I _ 2.0.M.B.C.C.S.A.x.s.=.L 5 O + + + + + + ",
"+ + + + + # g P ,.8.8.8.y.h.h.h.y.6.j.m.2.Y x 1 + # h I &.6.7.0.k.m.M.N.A.V.Z.S.f.=.G 2 + + + + + + ",
"+ + + + + > J #.8.8.9.9.3.3.6.6.6.4.0.r.6.-.! z & g U _ 6.6.6.6.5.<.0.u.z.l.n.V.x.e.$.v # + + + + + ",
"+ + + + % p  .8.8.8.8.5.6.1.;.2.2.2.2.2.6.2._ U S F _ 2.6.6.6.6.4.7.9.a.z.z.l.l.x.l.:.Y 9 O + + + + ",
"+ + + + > F { >.3.>.;.&.( Q ( ( ( ^ _ Q 2.6.-.^ ! ! _ 6.6.7.2.2.;.-.;.w.t.a.g.l.c.c.e.$.v . + + + + ",
"+ + + # i Y ( { W ( ( ~ ^ ^ ( ^ ^ ^ ^ ^ ^ _ _ / ! / ^ _ -._ _ ^ ! ~ ) %.%.*.>.5.i.l.a.=.] 2 + + + + ",
"+ + + 2 a H $.( ( ( ( ( ( ^ ^ ~ ^ ^ ^ ^ ^ ^ ^ ^ / / ^ ^ / ^ ^ ^ ! ) %.) ) %.%.%.:.>.q.{ &.w + + + + ",
"+ + + 6 c K ( ( ( W ( ( ~ ^ ^ ^ ^ ^ / ^ / ^ / / ^ ^ ^ ^ ^ / / ^ ) ) ) %.%.%.$.*.=.=.=.$.W j + + + + ",
"+ + + q D I W W ( ( ( ^ ( ^ ^ ( ^ ^ ^ ^ ^ ^ / / / / / ^ ^ ^ / ^ ) ) %.) %.%.%.%.*.*.*.$.W n @ + + + ",
"+ + + d D F W ( ( ( ( ~ ( ^ ^ ^ ^ / ^ ^ ^ / / / / / / ^ ^ / ^ / ) ) ) ) %.%.%.%.$.~ ~ Y D b # + + + ",
"+ + @ d D D W ( ( ( ( ~ ( ^ ^ ( ^ / ^ ^ ^ / / / / / / ^ ^ ^ ^ ) ) ) %.%.) ) ~ ~ ~ ~ $.F F v # + + + ",
"+ + + f F D T ~ ~ ~ ~ ~ ! / ! ! ^ ^ ^ ^ ! / / / / / ! / / / / ) ) ) ) ) ) ~ ( ~ ( ( R F D l # + + + ",
"+ + + r D D F T ~ ~ ~ ~ ~ ! ! / ^ ( ^ ^ / / / / / ! / / ! / ) ) ) ) ^ ~ ^ ~ ~ ( ~ ~ I F D l @ + + + ",
"+ +   > D D F T ~ ~ ~ ~ ~ ! ! ! ^ ! ^ ^ / ! / / ! / / / / ) ) ) ^ ^ ! ~ ^ ~ ( ~ ~ ~ K D F i @ + + + ",
"+ +   : D D D I T ~ ~ ~ ) ! ! ! ! ! ^ ^ ! / ! / / / ! / ) ) ) ! ! ! ! ^ ~ ^ ~ ( ~ T D D D d + + + + ",
"+ + + * c D D F Y T ~ ~ ~ ~ ~ ! ^ ! ! ! / ! / ! / / / ) ) / ! ! ^ ! ! ^ ^ ! ! ! U I F D D 9 + + + + ",
"+ + + o p D D F F T T ~ ! ! ! ! ^ ! ! ! ! / / ! ! / ) ) / ! ! ! ^ ! ! ! ^ ! T ! I F F D c * O + + + ",
"+ + +   u D D F F F T ~ ! ! ! ! ! ! ! ! ! ! ! ! ! / ) ) / ! ! ! ! ! ~ ! ! ! ! I F F D D z o + + + + ",
"+ + + + ; S D F F F I U U ! ! ! ! ! ! ! ! ! ! / ) / ! ! ! ! ! / ^ ! ~ ! ! T U I F F F D y @ + + + + ",
"+ + + + 1 x D D F F F I I U ! U ! ! ! ! ! ! / / / ! ! ! ! ! ! ! ! ! ! / U I I F F F D D 8 + + + + + ",
"+ + + + @ f D F F F F I I U U ! ! ! ! ! ! / / / / ~ ! ! ! ! ! ! ! / U I I I F F D F D z $ + + + + + ",
"+ + + + O 5 S F F F F I I I I I I U ! ! / / / / ~ ! ! ! U ! U U U U I I I F F F F F D e + + + + + + ",
"+ + + O + # h K D F D F F I I I I I ! ! ! / / ! ! U U U U U U I I I I I I F F F F F x 2 + + + + + + ",
"+ + + + + + 4 c ] D F F I I I I ! ! ! U ! I U U U U ! I I I I I I I I I I F F F S D d + + + + + + + ",
"+ + + + + + # h H D D I I I I T ! U U U U U I I I I I I I I I I I I I I F F D F S x % + + + + + + + ",
"+ + + + + + + 3 D } H I I T T U U ! U U U I I I I I I I I I I I I F I F F F F D S 9   + + + + + + + ",
"+ + + + + + + + t } } Y T T U U ! U U U U I I I I I I I I I I I I F I F D F D S h @ + + + + + + + + ",
"+ + + + + + + + o k X.} T T T T T T I I I I I I I I I I I F I I F I F F F F D x & + + + + + + + + + ",
"+ + + + + + + + + * N +.E T T T T T F F F I I I I I I I I F F F F F F F F F M : + +   + + + + + + + ",
"+ + + + + + + +   + 9 ] O.H T Y T I F F I I F F I I I F F F F F F F F F J J d # + + + + + + + + + + ",
"+ + + + + + + +   O # d [ ..Y T Y I F F F F F I F F F F F F F F F F S S V h # + + + + + + + + + + + ",
"+ + + + + + + + + + + o k O.[ H F D D F F F F F F F F F F F F S S S M Z l % + + + + + + + + + + + + ",
"+ + + + + + + + + + O + % n O.[ D s s S S S F D F F F S S F S S s c G z * + + + + + + + + + + + + + ",
"+ + + + + + + + + + +   + = ` @.V a a s s s s S s s s s s s s x M Z z 7   + + + + + + + + + + + + + ",
"+ + + + + + + + + + + + +   = ` | m a s a s a a a s s a a a s c A z ; @ + + + + + + + + + + + + + + ",
"+ + + + + + + + + + + + + + + : N ' B x a a a a a a a a a x B ` m 0 . + + + + + + + + + + + + + + + ",
"+ + + + + + + + + + + + + + +   7 b ` B p x p a a a a a a C ` b > . + O + + + + + + + + + + + + + + ",
"+ + + + + + + + + + + + + + + + + = v Z C z a p p p p p Z A b , . +   + + + + + + + + + + + + + + + ",
"+ + + + + + + + + + + + + + + + + + 3 v Z ' B a a p N ' C l : @ + + + + + + + + + + + + + + + + + + ",
"+ + + + + + + + + + + + + + + + + + + & g C ' A B A ' C l -   + + + + + + + + + + + + + + + + + + + ",
"+ + + + + + + + + + + + + + + + + + + + o < b A ' ' m g & + + + + + + + + + + + + + + + + + + + + + ",
"+ + + + + + + + + + + + + + + + + + + + + # ; g v h 0 $ + + + + + + + + + + + + + + + + + + + + + + ",
"+ + + + + + + + + + + + + + + + + + + + + + + X o o + + + + + + + + + + + + + + + + + + + + + + + + ",
"+ + + + + + + + + + + + + + + + + + + + + O + + + + + + + + + + + + + + + + + + + + + + + + + + + + ",
"+ + + + + + + + + + + + + + + + + + + + + + O + + + + + + + + + + + + + + + + + + + + + + + + + + + "
};
