/* XPM */
static char *_664297651590[] = {
/* columns rows colors chars-per-pixel */
"50 50 115 2 ",
"   c #24231F",
".  c #2C231E",
"X  c #36231E",
"o  c #3C231D",
"O  c #1F2524",
"+  c #232323",
"@  c #2C2122",
"#  c #322121",
"$  c #3C2220",
"%  c #43241F",
"&  c #4A231E",
"*  c #52241E",
"=  c #5C251D",
"-  c #6C251E",
";  c #7B251E",
":  c #762A1E",
">  c #452421",
",  c #4B2720",
"<  c #4E2A20",
"1  c #552520",
"2  c #5C2321",
"3  c #502820",
"4  c #652621",
"5  c #6A2720",
"6  c #6A2922",
"7  c #7D2723",
"8  c #702E24",
"9  c #7B2922",
"0  c #713024",
"q  c #7D3527",
"w  c #88251F",
"e  c #94271F",
"r  c #9B281F",
"t  c #AD2C1E",
"y  c #B22D1F",
"u  c #BB2E1F",
"i  c #812620",
"p  c #842A25",
"a  c #8A2A23",
"s  c #922722",
"d  c #912B22",
"f  c #9B2C23",
"g  c #863228",
"h  c #953026",
"j  c #9C3327",
"k  c #913528",
"l  c #9D362F",
"z  c #953E2A",
"x  c #A42A21",
"c  c #AD2C21",
"v  c #B62D22",
"b  c #BB2E21",
"n  c #A63127",
"m  c #AD3125",
"M  c #A23628",
"N  c #AA3428",
"B  c #B33323",
"V  c #BD3322",
"C  c #BA3A26",
"Z  c #B43C2D",
"A  c #BB3B30",
"S  c #C22D1F",
"D  c #C42F21",
"F  c #CC2E22",
"G  c #D12F22",
"H  c #C53122",
"J  c #CC3122",
"K  c #CB382D",
"L  c #D43123",
"P  c #DB3224",
"I  c #D23529",
"U  c #DF3729",
"Y  c #D03B2B",
"T  c #DB3B2C",
"R  c #D93E30",
"E  c #E33526",
"W  c #E53628",
"Q  c #E43A2B",
"!  c #E93A2A",
"~  c #B8412D",
"^  c #B34A2F",
"/  c #A64633",
"(  c #B34131",
")  c #BE5539",
"_  c #D1442D",
"`  c #D94333",
"'  c #D04D32",
"]  c #DF4639",
"[  c #DD4B3E",
"{  c #C45033",
"}  c #CB5837",
"|  c #D15030",
" . c #E34032",
".. c #E54A3A",
"X. c #E4503F",
"o. c #DC4C42",
"O. c #E64F43",
"+. c #E65345",
"@. c #E85644",
"#. c #E55548",
"$. c #E55C4D",
"%. c #E55D52",
"&. c #E96253",
"*. c #EA6857",
"=. c #E6685B",
"-. c #E96C5B",
";. c #E47161",
":. c #EB7965",
">. c #E87468",
",. c #E97D68",
"<. c #EA7D73",
"1. c #EC8376",
"2. c #EB8778",
"3. c #EB8D7E",
"4. c #EF9F92",
/* pixels */
"+ + + + + + + + + + + + + + + + + + + + + + + + + + + + + + + + + + + + + + + + + + + + + + + + + + ",
"+ + + + + + + + + + + + + + + + + + + + + + + # $ $ # + + + + + + + + + + + + + + + + + + + + + + + ",
"+ + + + + + + + + + + + + + + + + + + + + @ 5 x v v f 2 @ + + + + + + + + + + + + + + + + + + + + + ",
"+ + + + + + + + + + + + + + + + + + + + # a F I ` ` T H 7 . + + + + + + + + + + + + + + + + + + + + ",
"+ + + + + + + + + + + + + + + + + + O @ 7 I [ >.3.3.1.$.Y 9   + + + + + + + + + + + + + + + + + + + ",
"+ + + + + + + + + + + + + + + + + + + 2 D ] ;.4.4.4.4.2.O.K 1 + + + + + + + + + + + + + + + + + + + ",
"+ + + + + + + + + + + + + + + + + + . d R #.%.<.3.3.1.*.$.@.f @ O + + + + + + + + + + + + + + + + + ",
"+ + + + + + + + + + + + + + + + + + * H o.#.#.#.$.$.$.X.&.-.K * O + + + + + + + + + + + + + + + + + ",
"+ + + + + + + + + + + + + + + + + + ; I o.#.#.#.#.#.#.#.&.:...p + + + + + + + + + + + + + + + + + + ",
"+ + + + + + + + + + + + + + + + + @ x I o.O.#.O.O.+.#.#.=.,.@.N # + + + + + + + + + + + + + + + + + ",
"+ + + + + + + + + + + + + + + + + > b G I Q Q Q E Q  ...&.*...I > + + + + + + + + + + + + + + + + + ",
"+ + + + + + + + + + + + + + + + O = F G P P E E W W E E Q Q Q Q 2 + + + + + + + + + + + + + + + + + ",
"+ + + + + + + + + + + + + + + + + - F G P P E E W W W W ! !  .! 7 + + + + + + + + + + + + + + + + + ",
"+ + + + + + + + + + + + + + + + + i G G P P E E W W W ! ! ! ! ! s + + + + + + + + + + + + + + + + + ",
"+ + + + + + + + + + + + + + + + @ s G G P P E E W E W ! ! ! ! W x @ + + + + + + + + + + + + + + + + ",
"+ + + + + + + + + + + + + + + + @ f G G P P E W E E W ! ! W W W c @ + + + + + + + + + + + + + + + + ",
"+ + + + + + + + + + + + + + + + @ f G G P P P E E E W ! ! W W W v # + + + + + + + + + + + + + + + + ",
"+ + + + + + + + + + + + + + + + @ t G G P P P E E E ! ! W W W E v # + + + + + + + + + + + + + + + + ",
"+ + + + + + + + + + + + + + + + # x G G P P P E E W W W E E E E v $ + + + + + + + + + + + + + + + + ",
"+ + + + + + + + + + + + + + + + # t G G G P P P E W W W E E E E v # + + + + + + + + + + + + + + + + ",
"+ + + + + + + + + + + + + + + + # f G G G P P P E E E E E E E E v # + + + + + + + + + + + + + + + + ",
"+ + + + + + + + + + + + + + + + @ r G G P P P P E E E E E E E E c # + + + + + + + + + + + + + + + + ",
"+ + + + + + + + + + + + + + + + @ e F G G P P P E E E E E E E E c @ + + + + + + + + + + + + + + + + ",
"+ + + + + + + + + + + + + + + + @ w S F G P P P E E E E E E E E f @ + + + + + + + + + + + + + + + + ",
"+ + + + + + + + + + + + + + + + @ ; S G L P P P P P E E P E E P a + + + + + + + + + + + + + + + + + ",
"+ + + + + + + + + + + + + + + + + - S S L L P E P P P E E E P G 7 + + + + + + + + + + + + + + + + + ",
"+ + + + + + + + + + + + + + @ + + = u J J L U P P P P P E P P P 4 + + + + + + + + + + + + + + + + + ",
"+ + + + + + + + + + + + + + + + O & y J J L E P P P G P P P P F 3 + + + + + + + + + + + + + + + + + ",
"+ + + + + + + + + + + + + + + + + # n D G P E L L P L P G P G S % + + + + + + + + + + + + + + + + + ",
"+ + + + + + + + + + + + + + + + + @ h H L U P L L G L L P G G t # + + + + + + + + + + + + + + + + + ",
"+ + + + + + + + + + + + + + + + + + g _ I U L L L L G G P G P w + + + + + + + + + + + + + + + + + + ",
"+ + + + + + + + + + + + + + + + + + 8 ' I I L L G L G G G G F - + + + + + + + + + + + + + + + + + + ",
"+ + + + + + + + + + + + + + + + + + & { Y L J J G J G G G J b , + + + + + + + + + + + + + + + + + + ",
"+ + + + + + + + + + + + + + + + + + X ^ | J J J J J J J J H c # + + + + + + + + + + + + + + + + + + ",
"+ + + + + + + + + + + + + + + + + +   z | H D J J J J J J J p + + + + + + + + + + + + + + + + + + + ",
"+ + + + + + + + + + + + + + + + + + + 0 } V u J J J D J H V 6 + + + + + + + + + + + + + + + + + + + ",
"+ + + + + + + + + + + + + + + + + + + & ) C y V D D J S u m % + + + + + + + + + + + + + + + + + + + ",
"+ + + + + + + + + + + + + + + + + + + X / A t u u u u y B d . + + + + + + + + + + + + + + + + + + + ",
"+ + + + + + + + + + + + + + + + + + + + q ~ c y y y y y B -   + + + + + + + + + + + + + + + + + + + ",
"+ + + + + + + + + + + + + + + + + + + + < ( m t y y y B M %   + + + + + + + + + + + + + + + + + + + ",
"+ + + + + + + + + + + + + + + + + + + + @ k Z t t y t B k @ + + + + + + + + + + + + + + + + + + + + ",
"+ + + + + + + + + + + + + + + + + + + + + 6 ( m t y m Z = + + + + + + + + + + + + + + + + + + + + + ",
"+ + + + + + + + + + + + + + + + + + + + + % M Z t t C j X + + + + + + + + + + + + + + + + + + + + + ",
"+ + + + + + + + + + + + + + + + + + + + + + 9 ( m y A 6 + + + + + + + + + + + + + + + + + + + + + + ",
"+ + + + + + + + + + + + + + + + + + + + + + > M ~ Z l o + + + + + + + + + + + + + + + + + + + + + + ",
"+ + + + + + + + + + + + + + + + + + + + + + + 5 ( ( 4 + + + + + + + + + + + + + + + + + + + + + + + ",
"+ + + + + + + + + + + + + + + + + + + + + + + o : 6 @ + + + + + + + + + + + + + + + + + + + + + + + ",
"+ + + + + + + + + + + + + + + + + + + + +   + O   @ O   + + + + + + + + + + + + + + + + + + + + + + ",
"+ + + + + + + + + + + + + + + + + + + + + + + + + + + + + + + + + + + + + + + + + + + + + + + + + + ",
"+ + + + + + + + + + + + + + + + + + + + + + + + + + + + + + + + + + + + + + + + + + + + + + + + + + "
};
