/* XPM */
static char *_664297645002[] = {
/* columns rows colors chars-per-pixel */
"50 50 138 2 ",
"   c #26231F",
".  c #2C221F",
"X  c #34221E",
"o  c #3A241E",
"O  c #1F2524",
"+  c #232323",
"@  c #2B2222",
"#  c #342221",
"$  c #3E2321",
"%  c #44231E",
"&  c #4D231D",
"*  c #4E281E",
"=  c #54241D",
"-  c #5A251E",
";  c #65251E",
":  c #6B261E",
">  c #622A1E",
",  c #76261D",
"<  c #7A261E",
"1  c #442322",
"2  c #4E2421",
"3  c #542321",
"4  c #5D2522",
"5  c #622320",
"6  c #6B2621",
"7  c #6E2822",
"8  c #7C2721",
"9  c #7D2921",
"0  c #7F3222",
"q  c #82271F",
"w  c #83281F",
"e  c #8D291E",
"r  c #95291F",
"t  c #99291E",
"y  c #A72C1F",
"u  c #AC2C1D",
"i  c #B32D1F",
"p  c #BB2D1F",
"a  c #AE321F",
"s  c #B1301F",
"d  c #B9321F",
"f  c #842B21",
"g  c #8C2B21",
"h  c #932A22",
"j  c #9B2D22",
"k  c #8E3425",
"l  c #913925",
"z  c #9B3A28",
"x  c #A52D24",
"c  c #AD2D21",
"v  c #B52E20",
"b  c #BD2E20",
"n  c #A23225",
"m  c #AC3325",
"M  c #AC3629",
"N  c #A13A2F",
"B  c #AE3A2A",
"V  c #B43325",
"C  c #BD3222",
"Z  c #B23A27",
"A  c #BE3A23",
"S  c #B23528",
"D  c #B23B2B",
"F  c #BC3F28",
"G  c #C12E1F",
"H  c #C52E21",
"J  c #CB2F22",
"K  c #C33222",
"L  c #CC3122",
"P  c #C13A24",
"I  c #CD3A25",
"U  c #C43329",
"Y  c #CD3529",
"T  c #C53A2B",
"R  c #C93C2E",
"E  c #D43123",
"W  c #DB3325",
"Q  c #D33924",
"!  c #DB3825",
"~  c #D73528",
"^  c #DE372B",
"/  c #D73A2B",
"(  c #DD392B",
")  c #C93F30",
"_  c #E33527",
"`  c #E33827",
"'  c #E63629",
"]  c #E83629",
"[  c #E43A2B",
"{  c #E93A2C",
"}  c #E53F31",
"|  c #9B4237",
" . c #B7422B",
".. c #BB442B",
"X. c #C14329",
"o. c #CB4133",
"O. c #C94339",
"+. c #CF4D3E",
"@. c #D24C3E",
"#. c #D94A3B",
"$. c #E34335",
"%. c #E74538",
"&. c #E64A3D",
"*. c #CF4E40",
"=. c #D04F43",
"-. c #CE5041",
";. c #D15144",
":. c #DE5446",
">. c #D85449",
",. c #E34E40",
"<. c #E65547",
"1. c #E95446",
"2. c #E45649",
"3. c #EA564A",
"4. c #E3594A",
"5. c #E85B4D",
"6. c #D36255",
"7. c #DF6456",
"8. c #E76855",
"9. c #E4635C",
"0. c #E36A5E",
"q. c #EB735D",
"w. c #D97264",
"e. c #DA736E",
"r. c #EC7A66",
"t. c #E57B6C",
"y. c #E37B70",
"u. c #E87E72",
"i. c #E7846E",
"p. c #E08074",
"a. c #E1837A",
"s. c #E0897E",
"d. c #EB917B",
"f. c #E6968C",
"g. c #E89B8F",
"h. c #E19C92",
"j. c #F1BBAA",
"k. c #F2C4B4",
/* pixels */
"+ + + + + + + + + + + + + + + + + + + + + + + + + + + + + + + + + + + + + + + + + + + + + + + + + + ",
"+ + + + + + + + + + + + + + + + + + + O + + +   + + + + + + + + + + + + + + + + + + + + + + + + + + ",
"+ + + + + + + + + + + + + + + + + + . & ; 8 9 < , ; = 5 8 8 6 # + + + + + + + + + + + + + + + + + + ",
"+ + + + + + + + + + + + + + + +   o e i b K T U J L J H H L E x $ + + + + + + + + + + + + + + + + + ",
"+ + + + + + + + + + + + + + + O % t H L O.e.s.p.>.^ ~ E H J / t.| @ + + + + + + + + + + + + + + + + ",
"+ + + + + + + + + + + + + + + X g C d O.6.f.h.g.t.:.} W H E 9.k.y.5 + + + + + + + + + + + + + + + + ",
"+ + + + + + + + + + + + + + + - i H o.+.-.w.a.y.7.u.5.W J ( 0.j.d.N @ + + + + + + + + + + + + + + + ",
"+ + + + + + + + + + + + + + + e G P +.-.=.@.;.:.2.0.5.[ E #.4.i.u.O.1 + + + + + + + + + + + + + + + ",
"+ + + + + + + + + + + + + + o y H ) =.=.=.=.#.,.1.<.<.&.W &.3.q.r.2.6 + + + + + + + + + + + + + + + ",
"+ + + + + + + + + + + + + + = i b R @.*.) Y E _ } $.,.,.^ ,.3.8.r.9.h @ + + + + + + + + + + + + + + ",
"+ + + + + + + + + + + + + + ; H H H U J J J E W ' ' ' %.} $.} } 3.5.S @ + + + + + + + + + + + + + + ",
"+ + + + + + + + + + + + + + , G H H J J J J J _ ' ' ] ] ] _ ] { } %.U # + + + + + + + + + + + + + + ",
"+ + + + + + + + + + + + + @ w G H H J J J J W _ ] ] ] ] ] ] { { { } Y 1 + + + + + + + + + + + + + + ",
"+ + + + + + + + + + + + + . e G H H J J J J W _ ] ] ] ] ] _ { { { { ^ 2 + + + + + + + + + + + + + + ",
"+ + + + + + + + + + + + + X r G H H H J J J E _ ] ] ] ] ] { { { { { E 2 + + + + + + + + + + + + + + ",
"+ + + + + + + + + + + + + @ h G H H J J J J W ^ ' ] ] ] ] { { } { ] E 3 + + + + + + + + + + + + + + ",
"+ + + + + + + + + + + + + . t G H H J J J J W _ ] ] ] ] ] ] ] ] ] ' E 3 + + + + + + + + + + + + + + ",
"+ + + + + + + + + + + + + @ t G H H J J J J W W _ ] ] ] ] ] { ] ] _ E 3 + + + + + + + + + + + + + + ",
"+ + + + + + + + + + + + + @ e p H H J J J E E W _ ] _ ] ] { { ] ] _ J 2 + + + + + + + + + + + + + + ",
"+ + + + + + + + + + + + + . e p H H J J J J W W _ ] ] ] { { { ] ] ] J 1 + + + + + + + + + + + + + + ",
"+ + + + + + + + + + + + +   q p H H J J J J W W _ ` [ { { ] ] ] _ _ H 1 + + + + + + + + + + + + + + ",
"+ + + + + + + + + + + + + + , i H H H J J J E W _ _ ` { { ] _ ' ] W v # + + + + + + + + + + + + + + ",
"+ + + + + + + + + + + + + + ; i H H H H J J E W W ` [ [ { _ _ _ _ W x @ + + + + + + + + + + + + + + ",
"+ + + + + + + + + + + + + + = u b H H J J J E E W ` { { _ ] _ _ _ W h + + + + + + + + + + + + + + + ",
"+ + + + + + + + + + + + + + % c b G J H G E E E W ] { ` ` ` _ _ W E q + + + + + + + + + + + + + + + ",
"+ + + + + + + + + + + + + + o t v G H J G G E E ! ` ` _ ` ` _ _ W J 5 + + + + + + + + + + + + + + + ",
"+ + + + + + + + + + + + + O @ w i p H H J J E ! ` ` ` _ _ _ _ W W H 1 + + + + + + + + + + + + + @ + ",
"+ + + + + + + + + + + + + + + : v p G J J G E _ _ ! W _ _ _ W E W v X + + + + + + + + + + + + + + + ",
"+ + + + + + + + + + + + + + + = c i b G G J ! ! _ E E E E W E E E g @ + + + + + + + + + + + + + + + ",
"+ + + + + + + + + + + + + + + o x i b H L Q ! ! ! E E E E W E E J 6 + + + + + + + + + + + + + + + + ",
"+ + + + + + + + + + + + + +   @ k V H I Q ! ! ` W E E E E E E E C 1 + + + + + + + + + + + + + + + + ",
"+ + + + + + + + + + + + + +   + > F K I Q Q Q ! E G E E E G E E j @ + + + + + + + + + + + + + + + + ",
"+ + + + + + + + + + + + + + + + 1  .A I Q Q Q Q G L E E G E J L 6 + + + + + + + + + + + + + + + + + ",
"+ + + + + + + + + + + + + + + +   l F A I Q Q L L L L G I J E b % + + + + + + + + + + + + + + + + + ",
"+ + + + + + + + + + + + + + + +   - ..d I Q I K J L G L J J L k @ + + + + + + + + + + + + + + + + + ",
"+ + + + + + + + + + + + + + + + O X  .X.A I G p J L G G H K U 4 + + + + + + + + + + + + + + + + + + ",
"+ + + + + + + + + + + + + + + + +   0 X.d P p p G K K J G K j # + + + + + + + + + + + + + + + + + + ",
"+ + + + + + + + + + + + + + + + + + *  .P d u i K d d G C V 7   + + + + + + + + + + + + + + + + + + ",
"+ + + + + + + + + + + + + + + + +   . l X.s u u p v i i V n % + + + + + + + + + + + + + + + + + + + ",
"+ + + + + + + + + + + + + + + +   + + > ..a u y u i u m M <   + + + + + + + + + + + + + + + + + + + ",
"+ + + + + + + + + + + + + + + + + O + X z V u u u u i V x 2 + + + + + + + + + + + + + + + + + + + + ",
"+ + + + + + + + + + + + + + + + + + + + > M y u u i c Z g @ + + + + + + + + + + + + + + + + + + + + ",
"+ + + + + + + + + + + + + + + + + + + + X k m u u u S M 2 + + + + + + + + + + + + + + + + + + + + + ",
"+ + + + + + + + + + + + + + + + + + + + + - M m u V D 9 @ + + + + + + + + + + + + + + + + + + + + + ",
"+ + + + + + + + + + + + + + + + + + + + + # f Z m Z n 1 @ + + + + + + + + + + + + + + + + + + + + + ",
"+ + + + + + + + + + + + + + + + + + + + + + & n D B , + + + + + + + + + + + + + + + + + + + + + + + ",
"+ + + + + + + + + + + + + + + + + + + + + O + ; n f # + + + + + + + + + + + + + + + + + + + + + + + ",
"+ + + + + + + + + + + + + + + + + + + + + + + . & # + + + + + + + + + + + + + + + + + + + + + + + + ",
"+ + + + + + + + + + + + + + + + + + + + + + + + + + + + + + + + + + + + + + + + + + + + + + + + + + ",
"@ + + + + + + + + + + + + + + + + + + + + + +   + + + + + + + + + + + + + + + + + + + + + + + + + + "
};
