/* XPM */
static char *_664297636078[] = {
/* columns rows colors chars-per-pixel */
"50 50 147 2 ",
"   c #24231F",
".  c #2B221E",
"X  c #33231E",
"o  c #3C241E",
"O  c #1F2621",
"+  c #232323",
"@  c #2B2221",
"#  c #222328",
"$  c #332320",
"%  c #3B2320",
"&  c #44231D",
"*  c #4C231D",
"=  c #54241D",
"-  c #5A241D",
";  c #65261F",
":  c #6D281E",
">  c #75271F",
",  c #7F271D",
"<  c #722A1C",
"1  c #7A2F1C",
"2  c #412123",
"3  c #4A2420",
"4  c #512320",
"5  c #582521",
"6  c #622720",
"7  c #6E2622",
"8  c #7A2721",
"9  c #742A21",
"0  c #7D2923",
"q  c #89261F",
"w  c #82291E",
"e  c #8B2A1F",
"r  c #942B1F",
"t  c #9C2B1F",
"y  c #A32B1F",
"u  c #AB2C1E",
"i  c #B32D1E",
"p  c #BB2E1F",
"a  c #B6321F",
"s  c #852B22",
"d  c #8D2C21",
"f  c #942B21",
"g  c #9B2D21",
"h  c #823124",
"j  c #9F3127",
"k  c #9D3826",
"l  c #A42E22",
"z  c #AD2E22",
"x  c #B32F21",
"c  c #BC2E20",
"v  c #AB3225",
"b  c #AD3628",
"n  c #AA3E29",
"m  c #B33324",
"M  c #BE3223",
"N  c #B33C26",
"B  c #BB3C27",
"V  c #B93629",
"C  c #B43C2C",
"Z  c #BA3D2E",
"A  c #C22D1F",
"S  c #C4311F",
"D  c #C32E20",
"F  c #CA2F21",
"G  c #D02F21",
"H  c #C33122",
"J  c #CC3122",
"K  c #CB3A24",
"L  c #C1372A",
"P  c #CC3528",
"I  c #C53D2E",
"U  c #CE3A2C",
"Y  c #D43123",
"T  c #DB3425",
"R  c #D23A24",
"E  c #DB3826",
"W  c #D23528",
"Q  c #DC3628",
"!  c #D63B2B",
"~  c #DC3C2E",
"^  c #DF3F31",
"/  c #E33627",
"(  c #E33827",
")  c #E53628",
"_  c #E83629",
"`  c #E53A2B",
"'  c #E93B2C",
"]  c #E33E31",
"[  c #EA3F30",
"{  c #BD462D",
"}  c #B24231",
"|  c #CA422A",
" . c #C74A2F",
".. c #CA4A2E",
"X. c #C34132",
"o. c #CB4435",
"O. c #C84738",
"+. c #CB4B3B",
"@. c #DD4335",
"#. c #DF493D",
"$. c #CC5234",
"%. c #E44233",
"&. c #E6473A",
"*. c #E84439",
"=. c #E44D3C",
"-. c #E84F3F",
";. c #CE5142",
":. c #CC5847",
">. c #D55242",
",. c #DE5646",
"<. c #E64F41",
"1. c #E65545",
"2. c #E95344",
"3. c #E85448",
"4. c #E55A4B",
"5. c #E25E51",
"6. c #D86356",
"7. c #E9604C",
"8. c #E46453",
"9. c #E86150",
"0. c #E36D58",
"q. c #E96D59",
"w. c #E9715D",
"e. c #D96E65",
"r. c #EA7666",
"t. c #ED7C65",
"y. c #E77768",
"u. c #E97D68",
"i. c #E77F71",
"p. c #E87E70",
"a. c #E7846D",
"s. c #EC8169",
"d. c #EA8672",
"f. c #EB8A77",
"g. c #E58B7B",
"h. c #E89378",
"j. c #E28D84",
"k. c #E59282",
"l. c #EC9C87",
"z. c #EB9388",
"x. c #E79F92",
"c. c #ED9C97",
"v. c #E7A18C",
"b. c #EDA091",
"n. c #F0C3AA",
"m. c #F6D3BD",
"M. c #F3D9C6",
/* pixels */
"+ + + + + + + + + + + + + + + + + + + + + + + + + + + + + + + + + + + + + + + + + + + + + + + + + + ",
"+ + + + + + + + + + + + + + + + +   @ . @ @   + + + + + @ @ @ @ @     O + + @ + + + + + + + + + + + ",
"+ + + + + + + + + + + + + + + X 5 > e r g f , - $ @ % ; q r t t r s 6 o + + # + + + + + + + + + + + ",
"+ + + + + + + + + + + + +   - r x p p M I I U J z d l D F G F F Y W ! m 6 @ # + + + + + + + + + + + ",
"+ + + + + + + + + + + + + ; z c p M X.e.j.k.g.8.~ G F F F F F F ! 6.l.a.o.< @ + + + + + + + + + + + ",
"+ + + + + + + + + + + + - z c c M o.:.g.v.b.x.i.5.#.G D A F G Q 8.c.M.m.d.+.6 + + + + + + + + + + + ",
"+ + + + + + + + + + + % g p x c O.;.;.6.i.d.y.5.p.r.] F c c W <.4.z.m.n.v.u.m % + + + + + + + + + + ",
"+ + + + + + + + + + # : c a c { ;.;.>.,.4.4.1.3.5.5.<.Y F F ^ 3.2.0.h.d.f.d.=.0 + + + + + + + + + + ",
"+ + + + + + + + + + $ g a p M +.;.;.>.4.3.<.<.3.3.3.3.] F W <.3.2.q.t.t.s.s.7.V $ + + + + + + + + + ",
"+ + + + + + + + + O = a i p M o.+.;.@.^ ~ ) _ ] ] &.2.<.T ` 3.3.3.5.9.w.t.s.q.! 6 + + + + + + + + + ",
"+ + + + + + + + +   > p p p c c c P Q / ) ) ) ) ) ) ] *.) ` &.] [ [ ' %.-.q.w.@.s # + # + + + + + + ",
"+ + + + + + + + + . d p c p D D D F Q Q ) ) ) ` ) _ ) ` _ ` ` ` ' ' ' ' ' %.2.' z @ + # + + + + + + ",
"+ + + + + + + + + X y a p p D D F G Q ) Q ) ) ) _ ) ) ) _ _ ) ) ' ' [ [ %.' [ ' H % # + + + + + + + ",
"+ + + + + + + + + & y p p p A D F F / ) ) ) Q _ _ ) ) _ _ ) ) ` ' ' ' [ ' %.' ` P 2 + + + + + + + + ",
"+ + + + + + + + + 2 u p p p D D D Y Q ` ) ) ) ) ) _ _ ) _ _ ) [ ' ' ' ' ' ' ) Q P 3 + + +   + + + + ",
"+ + + + + + + + + 3 v p p p D A F J Q ) ) ) ) ) ) _ _ ) _ _ ' ' ' ' ' / ' ( ) T F 3 + + + + + + + + ",
"+ + + + + + + + + 3 u p p p A D F J Q ) ` ) / ) ) ) ) _ _ _ ' ' _ _ _ ) ) ) ) T F 4 + + + + + + + + ",
"+ + + + + + + + O & u i p c D D F J W / / ) ) / / ) / ) ) ' ' ' _ / _ ) ) ) ) T F 3 + + + + + + + + ",
"+ + + + + + + + + % y p p c D A F J Y / ) ) ) ) / ) ) ) ' ' ' ) / _ _ / ) ) T G D 2 # + + + + + + + ",
"+ + + + + + + + + % t p p D D D D Y Y Q / ) ) / / _ / _ ' ' _ / _ _ / / ) ) T T x $ + O + + + + + + ",
"+ + + + + + + + + $ r p p c p A F J Y T / ) ) ) ) / / ' _ ) ) ) _ _ / / _ / T Y z $ + + + + + + + + ",
"+ + + + + + + + + + w i c p D D A J Y Y / / / / / / ' ' _ ) / / / _ / / / / T Y t @ # + + + + + + + ",
"+ + + + + + + + +   : i p p D D F F Y Y T / / / / ' ' _ _ / / _ / / _ / / T T Y w + +   + + + + + + ",
"+ + + + + + + + +   - u p p c A A J Y Y Y / / / / ' _ / / / / _ _ / / / / T G G ;     # + + + + + + ",
"+ + + + + + + + + + & y p p p A D F J Y Y T ( ( ' ' / / ( / / / _ / / T T Y G D 3 + + + + + + + + + ",
"+ + + + + + + + + + X q i p p A A S J Y Y Y Q ( _ ( / / ( ( / / / _ T T T Y G z $ + + + + + + + + + ",
"+ + + + + + + + + + + 7 u c p p A A J Y Y Y Q ( ( E ( / / / / / _ T T T Y G G s + + + + + # + + + + ",
"+ + + + + + + + + + + * l c c p A F S Y Y Q ( T T T / / / T / / T T G Y Y T F 4 + + + + + + + + + + ",
"+ + + + + + + + + + + . e a M p p D J Y Q E Q T G T Y T Y T Y Y Y T G Y G T l $ + + + + + + + + + + ",
"+ + + + + + + + + + + + ; v m p p S Y R E E Q Y Y Y Y Y Y Y T Y Y Y T G G J 7 + O + + + + + + + + + ",
"+ + + + + + + + + + + + o k B S J K R R T E Y Y Y Y Y T T G G G Y Y Y G Y x 2 + + + + + + + + + + + ",
"+ + + + + + + + + + + +   1  .| K R R E T T G G G G G Y Y T G Y Y Y Y G W 0 + + + + + + + + + + + + ",
"+ + + + + + + + + + + + + & } ..| R R R E S J F J J Y Y Y Y Y Y J F Y J x 2 + + + + + + + + + + + + ",
"+ + + + + + + + + + + + + + 1  .| S R R R S J J J F J Y J Y J J J Y J J 8   + + + + + + + + + + + + ",
"+ + + + + + + + + + + +   O o } $.K R R S J J J Y F F J Y G J J F F P v o + + + + + + + + + + + + + ",
"+ + + + + + + + + + + + + O   : ..| K K S A A J S F S J G S F J J P M ;   + + + + + + + + + + + + + ",
"+ + + + + + + + + + + + + + O X k $.| a p p A F F J H J S F J H H L d . + + + + + + + + + + + + + + ",
"+ + + + + + + + + + + + + + + + = { ..p u i p A H D S H H A A c L v = + + + + + + + + + + + + + + + ",
"+ + + + + + + + + + + + + + + + . h $.m u y u i p p p p p p i m V 9 . + + + + + + + + + + + + + + + ",
"+ + + + + + + + + + + + + + + + + o n { u u y u u i u i p u m C f o + + + + + + + + + + + + + + + + ",
"+ + + + + + + + + + + + + + + + + + - Z N l u u i i i u i v Z z = + + + + + + + + + + + + + + + + + ",
"+ + + + + + + + + + + + + + + + + + @ 9 C b u i i u i i x Z b < + # + + + + + + + + + + + + + + + + ",
"+ + + + + + + + + + + + + + + + + + + $ s Z v l u u i u C C s $ + + + + + + + + + + + + + + + + + + ",
"+ + + + + + + + + + + + + + + + + + + + & f } b u i z Z C f % + + + + + + + + + + + + + + + + + + + ",
"+ + + + + + + + + + + + + + + + + + + # + * j } C v } { g * + + + + + + + + + + + + + + + + + + + + ",
"+ + + + + + + + + + + + + + + + + + + + + + = l C } Z l = + + + + + + + + + + + + + + + + + + + + + ",
"+ + + + + + + + + + + + + + + + + + + + + + + = r v r = @ + + + + + + + + + + + + + + + + + + + + + ",
"+ + + + + + + + + + + + + + + + + + + + + + O . & * & + + + + + + + + + + + + + + + + + + + + + + + ",
"+ + + + + + + + + + + + + + + + + + + + + O + + + + + + + + + + + + + + + + + + + + + + + + + + + + ",
"+ + + + + + + + + + + + + + + + + + + + + +   + + + O O + + + + + + + + + + + + + + + + + + + + + + "
};
