/* XPM */
static char *_77db7ab4dc04a51e891cb1b7190e6cdNl7F3URHvkBS63HJ[] = {
/* columns rows colors chars-per-pixel */
"50 50 163 2 ",
"   c #11100B",
".  c #292826",
"X  c #32312C",
"o  c #343530",
"O  c #393836",
"+  c #3F3E3A",
"@  c #403E3B",
"#  c #45433E",
"$  c #454441",
"%  c #4B4641",
"&  c #4B4946",
"*  c #4D4C4A",
"=  c #524F4C",
"-  c #53514D",
";  c #59534E",
":  c #514F50",
">  c #575552",
",  c #5C5A56",
"<  c #595758",
"1  c #5D5C59",
"2  c #625F5B",
"3  c #63625E",
"4  c #615F60",
"5  c #656562",
"6  c #696662",
"7  c #6C6965",
"8  c #6E6D6A",
"9  c #736A64",
"0  c #716E6A",
"q  c #6F706B",
"w  c #74726E",
"e  c #7A746E",
"r  c #757471",
"t  c #797673",
"y  c #777873",
"u  c #7C7A76",
"i  c #7D7D7A",
"p  c #877C76",
"a  c #817F7A",
"s  c #7F807A",
"d  c #84827D",
"f  c #88847F",
"g  c #7E7E80",
"h  c #858482",
"j  c #8A8682",
"k  c #878882",
"l  c #8C8A85",
"z  c #8E8C8A",
"x  c #908886",
"c  c #918E8B",
"v  c #93928D",
"b  c #99928E",
"n  c #959492",
"m  c #999693",
"M  c #979892",
"N  c #9C9A96",
"B  c #979799",
"V  c #999798",
"C  c #9D9C9A",
"Z  c #A19996",
"A  c #A19E9B",
"S  c #A3A19D",
"D  c #A8A59E",
"F  c #A39FA0",
"G  c #A5A4A2",
"H  c #A9A6A3",
"J  c #A7A8A3",
"K  c #ABAAA6",
"L  c #A6A5AA",
"P  c #ADACAA",
"I  c #B0AAA7",
"U  c #B1AEAB",
"Y  c #B8AFAA",
"T  c #B3B2AE",
"R  c #AEAEB0",
"E  c #B3AFB0",
"W  c #B5B4B2",
"Q  c #B9B6B3",
"!  c #B7B8B3",
"~  c #BBB9B6",
"^  c #B7B7B9",
"/  c #B9B7B8",
"(  c #BDBCBA",
")  c #C0BAB7",
"_  c #C1BEBA",
"`  c #C4BFBB",
"'  c #C1BEBC",
"]  c #C3C0BB",
"[  c #C2C1BC",
"{  c #C5C2BD",
"}  c #C5C4BF",
"|  c #C2C1BE",
" . c #BEBDC1",
".. c #C0BFC4",
"X. c #C7C6C1",
"o. c #C5C4C2",
"O. c #C9C5C2",
"+. c #C9C6C1",
"@. c #CCC7C3",
"#. c #CBC7C4",
"$. c #C8C6C4",
"%. c #C7C8C3",
"&. c #CBC8C3",
"*. c #C9C8C3",
"=. c #CDC8C5",
"-. c #CECBC7",
";. c #CDC9C6",
":. c #CDCCC7",
">. c #CAC9C6",
",. c #C7C7C9",
"<. c #C9C7C8",
"1. c #CDCCCA",
"2. c #D0CBC5",
"3. c #D1CDC8",
"4. c #D1CEC9",
"5. c #D0CECC",
"6. c #CED0CF",
"7. c #D1D0CB",
"8. c #D3D2CD",
"9. c #D5D2CD",
"0. c #D5D1CD",
"q. c #D2D1CE",
"w. c #CECED1",
"e. c #D3CFD0",
"r. c #D7D7D1",
"t. c #D5D4D3",
"y. c #D9D4D1",
"u. c #D9D7D5",
"i. c #DAD9D4",
"p. c #DED9D5",
"a. c #DDDAD5",
"s. c #DDD8D4",
"d. c #DAD9D6",
"f. c #D5D6D8",
"g. c #DFDBD8",
"h. c #DCDCDB",
"j. c #E3DCD6",
"k. c #E0DDD8",
"l. c #E1DEDC",
"z. c #DFE0DB",
"x. c #E1E0DB",
"c. c #E2E1DE",
"v. c #DEDFE2",
"b. c #E4E4E3",
"n. c #E8E4E1",
"m. c #ECE7E3",
"M. c #E9E7E4",
"N. c #EDEAE5",
"B. c #ECE8E5",
"V. c #EAE9E6",
"C. c #E5E5E9",
"Z. c #EFEEE9",
"A. c #ECECEB",
"S. c #F0EDE8",
"D. c #F0EFED",
"F. c #F2F1EE",
"G. c #EEEDF1",
"H. c #F1EFF0",
"J. c #F4F4F4",
"K. c #F9F6F3",
"L. c #F9F8F6",
"P. c #FFFCF8",
"I. c #FDFCFB",
/* pixels */
"S f d I Z I Z f ; f K I U I b f ~ l Z &.U 3 S ~ Y S b f } D f D D q 7 D M f v M f f f b S D b Z f ) ",
"u v Q N ] I D I b } { @.j.T ) S Y 8.:.N.4.D a.Y ! 2.} f I } Y ~ a.D s ) ) I v ~ D M Y D I ) ) Z ) D ",
"_ K C S ] Q b c 9 z b A Q M f b s v N v M f } N 3 3 U M M I f & s f f Y D } ! T Y D U S Z Y b b I D ",
"K :.T K D T 8.T c H K r d S v N N y l S ~ D K U e - 3 S D S - 7 f N ! N ~ v f d z 3 e # 2 2.I Y ! D ",
"N v 7.z.N U ! D U I c u L P I Y D s r.Z.7.C D U H Z n c Y ~ N S I I Y T s d ! ~ ~ ! T 3 b P.9.} S.D ",
"f 2 7 z d 3 z v Z N d V G x c I D C v s D M I x b I N c D T b d f b D f 3 q f f c v v w 3 S f - m x ",
"l f f K D } } s 2 y.=._ O.) b =.r.z._ e s ! f Q O.W 2.H D T c.) ] D N Z ! Y f f 3 f d f d Y { b c } ",
"a.[ [ [ ! ! } K x A G =.=.U F ) 8.v ! 7.D } I d I A ~ N D A j.N.N.! ) s s ! } { 9 M I ! f c } j.) ) ",
"[ T v T } ) D 9 d 9 b j I E A Y 9 2 Z V E H c 6 h A K W ^ 8 & 5 v D ) I v v f ! d f Z 9 d 9 S N D I ",
"D D } [ ~ T Q f e Z U 9.j.E E I c N e.) 3.Q u.H E ( K | / o.r h } } T 7.N I } } } } Y 9 Y j.K.V.4.) ",
"! U K s a U I w # 2 D c c m d a a 6 U ..F b u.=.C U P 5.o.1./ r v ! K D d 6 f U } Y f p b D *.} ( D ",
"! K s D 7 e D c ; # @ & r c Z H H j 6 I ` m Z I G ..( o.^ 1.1.( ~ ! K U ! v D } ! D 3 f M f K _ M b ",
"} ! D T c.T a.m.{ { r I s.' e.y.O.m b ' @.( ` O.C 1.t.i.M.b.o.9.z.r.7.r.K.N ! } ~ ~ f D ! ] M.z.z.M.",
"D } } v D } ) 2.) A N H @...I x F A v F F P V d h G C V P 1.n J T [ ! } ~ D U ! M S D ~ Q [ ( l N M ",
"d ! } D 3 b ) K Q Z Y H F Z Q ' A ..F Q F F A 2 C q.G i ( V G $.J f ! J 6 v ! K :.} S M Y T S S f ; ",
"K C [ N w l z ~ m.F.K Q ' ..e.n.=.E L.e.E l.h.v o.q.t.( >.h n A.:.M [ ! f T K U *.2.J D ~ { y.l.} 9 ",
"f w K b k u u N m c Z j F U ` Q F c A ..z > 5 t A n n z w u 3 j K S T ! S v S D C N S M P S l J Z 2 ",
"U ( %.t.i.M N K m A A m b _ <.5.e.` I Y U c ' y.O.o.o.~ S K J U %.:.[ ( 8.z.&.[ %.( M [ i.:.z z A d ",
"M l | 1.q.S z ^ F F K n j n N o...e.I F ~ l h W K H t.W i.M.q.( %.6.v l J ! z C U c.( :.c.M.z.K Y F ",
"[ K i 1 M M q 1 : Z H A U K W o.A F V h C L c M h 6 a V K C z M l [ v > i u S v C :.g.P T T T ! G f ",
"S %.*.( R G o.U M ( | Q o.b.b.I.M.n ^ U P ( f.G v J ( N C ! y C l J %.K # D 6.:.} %.*.[ C ! 8.%.a.T ",
"k K [ ! [ &.:.q.f.$.T w l 1.b.i.o.c h i z 4 i v K %.[ ( *.T w u K S C V q l [ [ [ } W Q &.u.%.N.b.b.",
"z D T C D ( ! M d S G c s 3 ( A.H n 8 8 K R K c z , , S l M w 3 7 M T J T M k l d K K N S N z z S ( ",
"d N ! T K S G ( P ^ [ R C 8 k A.u.A.( 5 W / / o.S d q G U U :.K k u.! [ %.b.q v ( ( r.q.! T J %.q.:.",
"[ T 7.8.i.T D %.T C z C ^ L 1 G S P J 6 r 8 n K r k y C z.S R i.N K W l C 6.T } ( t.u.q.c.<.v C J ( ",
"[ T v 6.} 6.K D / C z C P v z # X 6 l 6 r : $ M U s - 7 S P S R U W T z N r q S P L U v h F G G N G ",
"x.r.3 f [ %.[ ! P ^ P P %.o.h.i   3 V _ 1.~ d V r.} C T z R q.~ 4.5.[ @ U ( ! J >.| t.1.G V ( g.( h ",
"7.8.s & d [ C C l G n h o.| t.v # $ n M z S h q.6.Z.>.i.1.P W P o.u s 5 v z.T S ( ( L P u.h.' t.^ y ",
"Q T ( %.P S M N o.o.P h y P 7 4 z & 2 & y O 1 W K H G 8 | q./ W V h u 8 P P G U Q c G c d ( W @.W W ",
"c.z.>.z.Z.y S o.o.W ( ( C C n C M G K [ i.n W 1.o.e.K O.1.h.A.t.c.I.#.V W 1.f.<.N N ( e.E I ..) >.i.",
"[ U T M ( K [ C r  .| J W 1.z M M N K ! U . P b.t.t.b...R E t.<.b.M.q.t.( o.<.y.' I y.O.5.5.5.1.t.| ",
"_ K _ S [ ! ( T y M o.^ W 1.6.K C v T M l h V L U M P P : < v B h #.h...P P F g m V j t E c _ 1.| ( ",
"z.o.o.W d.o.t.b.t.M 1.1.K A.I.d.v.J...^ G.I.z...A.[ S v.( r 1.A.U v G.G.J.I.( f Q M.1.( d.V t.A.h.( ",
"z.%.t.b.t.~ $.1.d.z 8 1.F b.o.u M z.v.P 6.z.P P ,.! W v k c G 1.S y h ^ B f...v U J.K i.f.| >.b.A F ",
"~ q.t.( P T 1.>.1.w.>.o.6.$.o.1.!  .6.o.h ,.^ L q.W %.h n / S J W g F ,.K K 6.%.H G ( Q 1.| K P P ( ",
"( | >.1.| P o.t.h.1.5.5.A.1.$.( %.[ %.R k R ! R | D.1.6.h.t.t.i.D.| W | t.f.| [ ,.1.1.b.f.h.M./ I ` ",
"o.o.o.>.L P ( ( / o.| ^ ( | z o.! P ! J v ..f.r.J o.C K f.o.[ R o.G W ^ ^ %.W / o.K M V H o.1.^ G Q ",
"W T W ~ ~ P T ( G W S U 1.t.o.~ ! ^ 6.r.[ z.6.,.| | o.W >.&.^ P [ %. .R W G z T $.( K ~ n v ( O.W e.",
"f.t.u.~ N.i.h.L.F.o.W t.o.| ( o.! C L J v y q 5 L V.1.f.t.i./ $.z.f.A.o.b.,.$.T R G P J.D.1.h._ F 1.",
"1.1.t.( b.c.1.1.d.T C 1.W o.o.( 6. .M | [ J C s k P o.J / >.G S :.P W ^ P w.1.1.>.L v W t.| t.1.A E ",
"| P | P C ( P o.( 1.1.f.^  . . . .R %.R ! C...J %.R J ! 6.%.( J s s y B h g P R T 1.1.W W q.1.o...c ",
"6.$.G P i.6.6.V.c.t.C.G.1.v.6.P f.^ f.^ L F.6.( k M w :.J.J.C.C.h.(  .i...C ( %.J T P 1.1.o.1.( Y Q ",
"R ^ W C W 6.( 1.i.1.1.h.6...t...6.,.T R R f...G S r R z J ^ 6.%.f.P K %.z.z.| 6.>.^ C ~ $.K ( K / U ",
"K i.W $.o.%.1.q.[ ( ( ^  .W  .M C ( J J z...^ s T ^ R C L C ( G 1.1.^ f.J M | C z 1.1.| f.d.^ K / F ",
"q.| | d.| z.f.t.z.J b.v.f.v.v.R R z.8.:.v.C.,.^ ,. .C ^ G.S L ^ J ^ ^ S $.P P A.%.| h.| M.M.M.t.A.Q ",
"^ P 1.t.( i.f.T 6.k ,.f.6.f.h.1.W ( ! ( R ^ R ,.f.f.,.R ^ ^  ...W C T R ( ( ,.f.>.o.L / o.W S 1.t.K ",
"n K o.q.i.6.6.o.[  . .,.1.f.W R R J W ^ w.R w.f.f.w.t.R L ,.w.f.^ i *  .h.R ( f.G P C C T W G z v P ",
"( V 1.h.6.h.I.%.[ z.w.,...6.M ^ f.z.z.f.G.w.G.L.w.C.C.w.z ,.w.R L.B 4 t.J.$.h.z.f.q.A.1.d.b.A.W H q.",
"o.z T b.f.d.f.( 6.1. .[ ~ i.w.w.v.^ L ! f...^ %.6.T ( W q z F h R h v M %.^ T o.^ K %.%.f.h.#.W N _ ",
"1.o.P K C P G o.C.$.R %.^ W G R v.^ F ^ w.L 4 : , o < C C g C f.z k R h k v W o.B c T M B ^ W i c #."
};
